<svg xmlns="http://www.w3.org/2000/svg" xml:space="preserve" viewBox="0 0 1024 1024" id="Idea">
  <path fill="none" stroke="#34a853" stroke-linejoin="round" stroke-miterlimit="10" stroke-width="30" d="m408.03 469.61 73.88 73.88 134.06-134.06" class="colorStroke000000 svgStroke"></path>
  <path fill="none" stroke="#34a853" stroke-linejoin="round" stroke-miterlimit="10" stroke-width="30" d="M727.78 468.45c-.8 63.09-28.66 119.66-72.52 158.61-28.09 24.95-44.45 60.5-44.45 98.07v27.9H413.19v-27.69c0-37.66-16.37-73.32-44.51-98.34-44.47-39.53-72.48-97.16-72.48-161.33 0-119.02 96.36-215.54 215.31-215.8 120.06-.27 217.79 98.53 216.27 218.58zM610.81 753.03v69.1c0 17.74-14.38 32.12-32.12 32.12H445.31c-17.74 0-32.12-14.38-32.12-32.12v-69.1h197.62zM472.93 901.46l-19.18-47.21h116.5l-19.18 47.21a6.986 6.986 0 0 1-6.47 4.35h-65.21c-2.84.01-5.4-1.71-6.46-4.35zM803.06 468.45h59.21M161.73 468.45h59.21M512 177.39v-59.21M657.53 216.38l29.6-51.27M366.47 216.38l-29.6-51.27M764.07 322.92l51.27-29.6M208.66 643.58l51.27-29.6M259.93 322.92l-51.27-29.6M815.34 643.58l-51.27-29.6" class="colorStroke000000 svgStroke"></path>
</svg>
